<?xml version="1.0" standalone="no"?>
<!DOCTYPE svg PUBLIC "-//W3C//DTD SVG 20010904//EN"
 "http://www.w3.org/TR/2001/REC-SVG-20010904/DTD/svg10.dtd">
<svg version="1.0" xmlns="http://www.w3.org/2000/svg"
 width="300.000000pt" height="300.000000pt" viewBox="0 0 300.000000 300.000000"
 preserveAspectRatio="xMidYMid meet">
<metadata>
Created by potrace 1.10, written by Peter Selinger 2001-2011
</metadata>
<g transform="translate(0.000000,300.000000) scale(0.100000,-0.100000)"
fill="#000000" stroke="none">
<path d="M811 2738 l2 -43 6 35 c4 25 11 35 24 34 9 0 262 -1 562 -2 l545 -2
0 -226 c0 -147 3 -223 10 -219 11 7 14 268 4 388 l-7 77 -573 0 -574 0 1 -42z"/>
<path d="M2023 2773 c-7 -3 -13 -17 -12 -31 l0 -27 10 25 c8 20 12 22 19 10 5
-8 10 -10 10 -5 0 18 -15 32 -27 28z"/>
<path d="M2117 2759 c-3 -12 0 -19 8 -19 7 0 16 -6 18 -12 3 -7 6 -1 6 13 1
32 -25 46 -32 18z"/>
<path d="M1321 2635 c-61 -52 -85 -194 -46 -280 9 -22 20 -53 24 -70 4 -16 9
-25 13 -20 3 6 -5 44 -19 85 -38 115 -21 212 46 259 36 26 46 26 81 1 64 -45
84 -178 41 -270 -19 -42 -29 -91 -15 -77 20 20 54 149 54 206 0 146 -96 235
-179 166z"/>
<path d="M1620 2575 l0 -65 70 0 70 0 0 34 c0 19 -8 48 -17 65 -17 28 -22 31
-70 31 l-53 0 0 -65z m98 16 c2 -11 8 -21 13 -21 14 0 11 -30 -3 -35 -7 -3
-31 1 -53 8 -30 9 -40 17 -41 35 -1 17 4 22 22 22 17 0 22 4 18 15 -5 12 -2
13 17 6 13 -4 25 -18 27 -30z"/>
<path d="M2411 2617 c-44 -54 4 -158 54 -117 17 14 20 82 5 111 -12 22 -43 25
-59 6z m39 -72 c-14 -17 -30 -11 -30 11 0 8 4 13 9 9 5 -3 13 0 17 7 6 9 9 9
12 0 2 -7 -2 -19 -8 -27z"/>
<path d="M650 2475 l0 -115 160 0 160 0 0 115 0 115 -62 -1 c-45 0 -57 -3 -43
-9 11 -5 33 -9 48 -9 16 -1 26 -5 23 -10 -7 -11 -144 -13 -181 -2 l-30 8 25 6
c14 4 34 8 45 10 11 3 -17 5 -62 6 l-83 1 0 -115z m70 89 c0 -9 -17 -11 -52
-5 -5 0 -8 6 -8 11 0 6 14 9 30 8 17 -1 30 -7 30 -14z m240 -109 l0 -85 -150
0 -150 0 0 85 0 85 150 0 150 0 0 -85z"/>
<path d="M823 2503 c26 -2 67 -2 90 0 23 2 2 3 -48 3 -49 0 -68 -1 -42 -3z"/>
<path d="M683 2468 c-2 -5 58 -7 134 -6 139 2 124 5 -40 10 -49 2 -91 0 -94
-4z"/>
<path d="M742 2443 c37 -2 100 -2 140 0 40 1 10 3 -67 3 -77 0 -110 -1 -73 -3z"/>
<path d="M708 2383 c23 -2 61 -2 85 0 23 2 4 4 -43 4 -47 0 -66 -2 -42 -4z"/>
<path d="M1071 2560 c0 -14 -4 -35 -7 -46 -4 -17 0 -22 18 -26 13 -3 31 -9 41
-13 12 -5 17 -2 17 10 0 11 -6 15 -19 10 -24 -7 -38 11 -44 55 -3 24 -4 27 -6
10z"/>
<path d="M302 2544 c-19 -13 -52 -63 -52 -78 0 -3 9 -10 21 -16 17 -10 23 -7
40 14 25 31 42 33 68 5 10 -11 22 -16 25 -11 7 12 -37 42 -63 42 -11 0 -23 -4
-26 -10 -11 -18 -35 -11 -28 8 22 58 103 51 128 -13 8 -19 8 -19 12 -2 7 27
-44 77 -77 77 -14 0 -36 -7 -48 -16z"/>
<path d="M1700 2480 c0 -4 23 -10 50 -14 45 -6 50 -9 50 -31 0 -16 6 -25 15
-25 18 0 18 2 4 33 -8 19 -23 26 -65 34 -30 5 -54 6 -54 3z"/>
<path d="M1305 2447 c-3 -12 3 -42 14 -67 10 -25 22 -64 26 -87 6 -40 5 -42
-21 -45 -26 -3 -27 -5 -28 -61 -1 -33 2 -61 6 -64 5 -2 8 -13 8 -24 0 -10 7
-19 15 -19 8 0 20 -9 27 -20 19 -30 42 -24 69 15 13 19 27 35 31 35 4 0 7 8 7
18 0 9 1 40 3 67 l3 50 -51 3 -50 3 -16 67 c-16 65 -16 67 4 84 19 17 22 17
48 1 26 -15 27 -18 15 -47 -18 -45 -27 -98 -15 -91 6 3 10 18 10 33 0 15 9 47
20 71 24 52 26 89 5 98 -9 3 -24 -2 -35 -12 -18 -16 -21 -17 -44 -1 -34 22
-45 20 -51 -7z m55 -17 c0 -5 -9 -14 -20 -20 -16 -9 -22 -8 -26 5 -3 8 -3 22
0 30 4 13 10 14 26 5 11 -6 20 -15 20 -20z m80 6 c0 -32 -12 -39 -36 -21 -19
15 -19 15 0 30 28 21 36 19 36 -9z m5 -214 c4 -10 -1 -22 -11 -29 -16 -12 -17
-13 -1 -13 24 0 21 -16 -5 -34 -18 -13 -19 -16 -6 -16 27 0 10 -27 -24 -39
-39 -14 -76 2 -57 25 9 11 8 14 -4 14 -26 0 -30 20 -5 29 l23 10 -22 0 c-27 1
-30 19 -5 37 10 8 12 13 5 14 -7 0 -13 4 -13 9 0 24 116 17 125 -7z"/>
<path d="M417 2442 c-21 -22 -22 -80 -2 -106 23 -30 35 -9 35 60 0 67 -6 76
-33 46z"/>
<path d="M1692 2409 c-2 -63 -6 -61 91 -74 29 -5 47 -4 47 3 0 5 -6 9 -12 8
-7 0 -36 3 -65 7 l-52 8 -4 52 -3 52 -2 -56z"/>
<path d="M243 2382 c6 -77 45 -150 80 -152 16 0 6 73 -13 97 -11 14 -20 41
-20 59 0 23 -6 37 -19 44 -32 17 -34 13 -28 -48z"/>
<path d="M854 2045 c0 -165 2 -234 3 -153 2 81 2 216 0 300 -1 84 -3 18 -3
-147z"/>
<path d="M407 2279 c-3 -11 -19 -25 -36 -32 -28 -10 -42 -27 -23 -27 20 0 81
54 82 73 0 16 -18 6 -23 -14z"/>
<path d="M1810 2242 c-29 -29 -40 -50 -50 -97 -16 -75 -18 -311 -3 -326 7 -7
24 15 57 76 39 74 45 93 40 125 -6 34 -8 37 -24 27 -31 -19 -50 7 -50 69 0 30
5 54 10 54 6 0 10 -7 10 -15 0 -24 47 -42 71 -27 16 10 19 9 19 -4 0 -8 -5
-25 -11 -36 -8 -15 -8 -19 0 -14 12 8 15 -6 4 -17 -9 -10 -10 -57 -1 -57 12 0
10 -38 -2 -45 -15 -9 -12 -19 10 -43 12 -12 16 -23 10 -27 -6 -4 -8 -11 -5
-16 4 -5 1 -9 -5 -9 -7 0 -10 6 -7 13 3 8 1 20 -4 28 -7 10 -9 5 -7 -16 5 -47
31 -38 47 18 15 48 34 61 45 31 4 -9 9 -15 11 -12 3 2 -6 37 -20 76 -19 55
-25 92 -25 157 0 72 -3 88 -20 105 -30 30 -58 25 -100 -18z m81 -26 c0 -6 2
-18 4 -27 5 -29 -10 -42 -44 -34 -37 8 -41 35 -11 65 20 20 49 18 51 -4z m-60
-206 c16 0 9 -24 -16 -52 -13 -16 -27 -28 -30 -28 -8 0 -6 75 2 84 4 3 13 4
21 1 7 -3 18 -5 23 -5z"/>
<path d="M1010 2150 c0 -60 4 -100 10 -100 6 0 10 40 10 100 0 60 -4 100 -10
100 -6 0 -10 -40 -10 -100z"/>
<path d="M2002 2228 c7 -19 38 -22 38 -4 0 10 -9 16 -21 16 -12 0 -19 -5 -17
-12z"/>
<path d="M1130 2139 c0 -49 4 -88 9 -85 13 8 14 176 1 176 -6 0 -10 -35 -10
-91z"/>
<path d="M2598 2135 l4 -65 39 0 c28 0 39 4 39 15 0 23 -25 79 -44 98 -33 32
-41 21 -38 -48z"/>
<path d="M970 2120 c0 -40 4 -70 10 -70 6 0 10 30 10 70 0 40 -4 70 -10 70 -6
0 -10 -30 -10 -70z"/>
<path d="M2535 2156 c-42 -42 -46 -153 -7 -205 30 -40 79 -36 109 8 23 34 31
91 13 91 -5 0 -10 -14 -10 -31 0 -58 -43 -98 -83 -77 -24 12 -47 68 -47 110 0
34 32 98 49 98 5 0 12 -15 14 -32 3 -25 4 -22 5 15 2 53 -8 58 -43 23z"/>
<path d="M1090 2110 c0 -33 4 -60 10 -60 6 0 10 27 10 60 0 33 -4 60 -10 60
-6 0 -10 -27 -10 -60z"/>
<path d="M930 2095 c0 -25 5 -45 10 -45 6 0 10 20 10 45 0 25 -4 45 -10 45 -5
0 -10 -20 -10 -45z"/>
<path d="M1050 2095 c0 -25 5 -45 10 -45 6 0 10 20 10 45 0 25 -4 45 -10 45
-5 0 -10 -20 -10 -45z"/>
<path d="M1170 2080 c0 -16 5 -30 10 -30 6 0 10 14 10 30 0 17 -4 30 -10 30
-5 0 -10 -13 -10 -30z"/>
<path d="M357 2064 c-4 -4 -7 -47 -7 -95 l0 -88 107 -3 107 -3 23 -40 23 -40
0 43 c0 31 4 42 15 42 13 0 15 15 13 93 l-3 92 -136 3 c-74 1 -138 -1 -142 -4z
m268 -94 l0 -75 -125 2 -125 3 -3 75 -3 76 128 -3 128 -3 0 -75z"/>
<path d="M484 2019 c-3 -5 25 -9 62 -9 37 0 65 3 62 6 -10 10 -118 12 -124 3z"/>
<path d="M442 1983 c32 -2 84 -2 115 0 32 2 6 3 -57 3 -63 0 -89 -1 -58 -3z"/>
<path d="M442 1963 c32 -2 84 -2 115 0 32 2 6 3 -57 3 -63 0 -89 -1 -58 -3z"/>
<path d="M1560 1993 c-45 -19 -43 -15 -35 -62 6 -37 9 -40 27 -30 18 10 19 12
3 29 -15 16 -15 19 0 34 9 9 23 16 31 16 8 0 14 7 14 15 0 8 -1 15 -2 14 -2 0
-19 -7 -38 -16z"/>
<path d="M1596 1972 c-6 -11 0 -88 9 -102 5 -8 11 -8 19 -1 8 7 10 26 7 57 -6
44 -22 66 -35 46z"/>
<path d="M1625 1860 c-10 -16 4 -85 21 -107 13 -16 14 -14 9 22 l-6 40 27 -43
c39 -62 40 -45 2 32 -32 66 -41 75 -53 56z"/>
<path d="M1176 1808 c-19 -27 -20 -52 -4 -81 7 -12 13 -38 14 -57 3 -47 8 -68
21 -81 8 -8 8 -20 2 -38 -7 -21 -5 -38 11 -74 12 -26 25 -47 30 -47 8 0 4 128
-6 159 -2 7 -10 11 -17 8 -8 -3 -13 7 -14 29 -1 19 3 34 8 34 5 0 9 -4 9 -10
0 -18 46 -11 65 10 14 16 21 18 28 8 5 -8 6 2 2 27 -7 47 -34 89 -61 94 -10 2
-27 12 -37 22 -23 25 -32 24 -51 -3z m68 -50 c14 -6 28 -19 31 -30 17 -51 -36
-82 -55 -33 -28 75 -24 86 24 63z"/>
<path d="M2278 1760 c-15 -11 -31 -20 -37 -20 -16 0 -28 -30 -34 -87 -6 -50
-5 -53 16 -53 19 0 22 6 24 47 1 36 7 52 23 65 12 10 26 18 31 18 14 0 30 -38
33 -83 5 -68 -2 -73 -45 -31 -40 39 -54 35 -19 -6 11 -13 21 -27 21 -32 1 -4
2 -14 3 -20 1 -7 7 -12 12 -11 7 1 9 -9 6 -24 -3 -18 -1 -24 7 -19 6 4 8 12 5
18 -4 6 -2 8 4 4 6 -3 13 -2 17 4 14 23 25 7 25 -38 0 -51 16 -81 63 -121 27
-23 28 -28 23 -80 -2 -31 -8 -73 -11 -93 -7 -40 0 -88 13 -88 4 0 13 14 19 30
8 20 24 35 48 46 26 10 41 26 52 52 17 40 25 162 10 162 -5 0 -7 9 -4 20 3 11
1 18 -3 15 -5 -3 -14 4 -20 15 -6 11 -27 28 -47 38 -20 9 -39 23 -41 31 -3 8
0 11 7 7 17 -11 13 0 -6 15 -15 12 -16 12 -8 -1 4 -8 -2 -5 -14 8 -17 17 -26
20 -41 12 -34 -18 -37 -11 -42 75 -3 65 -9 92 -24 112 -27 35 -36 37 -66 13z
m232 -310 c22 0 50 -65 50 -115 0 -57 -15 -91 -49 -113 l-23 -16 6 59 c7 55 5
64 -23 108 -17 26 -35 47 -40 47 -5 0 -14 13 -21 29 -9 22 -9 34 0 51 11 21
12 21 51 -14 21 -20 44 -36 49 -36z"/>
<path d="M665 1760 c-3 -5 -15 -10 -25 -10 -26 0 -55 -61 -42 -87 5 -10 13
-39 16 -65 4 -27 12 -48 17 -48 5 0 7 -10 4 -22 -3 -14 2 -33 13 -47 l19 -24
6 31 c5 23 10 29 25 26 23 -7 42 32 42 85 0 21 3 41 8 45 4 4 8 12 8 17 1 5 3
10 4 12 1 1 3 17 5 35 2 26 -1 32 -19 34 -11 0 -27 2 -35 2 -8 1 -16 7 -19 14
-5 15 -18 16 -27 2z m39 -46 c23 -9 20 -34 -3 -34 -11 0 -23 -4 -26 -10 -9
-15 -25 -12 -31 5 -12 30 23 53 60 39z m11 -64 c9 -29 -5 -87 -26 -106 -16
-14 -19 -15 -24 -2 -3 8 -1 27 5 42 5 15 10 41 10 57 0 33 25 40 35 9z m-56
-42 l-1 -43 -13 30 c-18 39 -18 55 0 55 11 0 15 -11 14 -42z"/>
<path d="M938 1723 c34 -2 90 -2 125 0 34 2 6 3 -63 3 -69 0 -97 -1 -62 -3z"/>
<path d="M1433 1723 c37 -2 96 -2 130 0 34 2 4 3 -68 3 -71 0 -99 -1 -62 -3z"/>
<path d="M2017 1653 c5 -66 3 -87 -11 -107 -13 -20 -13 -24 -2 -20 29 11 35
76 16 169 -5 27 -6 13 -3 -42z"/>
<path d="M1760 1661 c-17 -41 -36 -45 -66 -13 -26 27 -26 27 -14 2 24 -47 30
-51 59 -36 35 19 64 52 56 65 -11 18 -22 12 -35 -18z"/>
<path d="M1306 1632 c-4 -12 -17 -32 -29 -43 -18 -16 -19 -21 -8 -29 23 -13
40 0 47 35 8 42 0 69 -10 37z"/>
<path d="M2240 1568 c0 -24 27 -54 39 -43 7 7 2 18 -15 34 -16 16 -24 19 -24
9z"/>
<path d="M1972 1486 c-9 -21 -9 -26 2 -26 8 0 17 -6 19 -12 3 -7 5 -4 6 7 0
11 -4 28 -8 38 -6 17 -8 16 -19 -7z"/>
<path d="M1147 1477 c-19 -16 -29 -35 -32 -63 l-5 -39 11 35 c6 19 22 47 37
63 31 33 27 34 -11 4z"/>
<path d="M1280 1499 c0 -4 7 -26 16 -50 8 -24 18 -88 21 -141 3 -54 10 -98 14
-98 8 0 14 57 10 83 -1 4 -4 24 -7 45 -7 49 -31 133 -44 152 -5 8 -10 12 -10
9z"/>
<path d="M1805 1451 c-17 -34 -10 -63 14 -59 11 2 17 16 19 46 4 49 -11 55
-33 13z"/>
<path d="M570 1430 c-32 -45 -78 -151 -101 -235 -26 -95 -17 -116 32 -76 l24
20 -22 -6 c-20 -5 -23 -1 -23 24 0 38 27 118 46 134 8 6 14 22 14 34 0 13 13
48 29 79 33 62 33 71 1 26z"/>
<path d="M2294 1435 c-14 -14 -32 -41 -40 -60 -15 -36 -32 -165 -20 -154 3 3
19 49 35 103 16 53 35 103 41 111 18 22 39 18 50 -7 5 -13 9 -18 9 -11 3 47
-36 56 -75 18z"/>
<path d="M667 1391 c15 -28 27 -50 28 -48 2 1 -1 22 -5 47 -4 25 -8 39 -9 31
-1 -11 -5 -10 -21 4 -16 14 -15 9 7 -34z"/>
<path d="M2371 1379 c-1 -34 -46 -190 -71 -246 -15 -34 -24 -43 -43 -43 -14 0
-27 -7 -31 -15 -3 -8 -16 -14 -28 -14 -34 1 -151 -23 -165 -34 -19 -14 -16
-30 5 -22 51 22 95 35 138 41 27 3 57 10 67 15 21 12 48 -1 77 -38 16 -21 20
-23 15 -8 -16 50 -16 79 0 145 9 38 20 70 24 70 25 0 40 111 21 155 -8 18 -9
17 -9 -6z"/>
<path d="M1965 1351 c-9 -22 -28 -50 -41 -62 -28 -27 -28 -26 -9 -93 18 -60
39 -69 70 -28 17 23 20 40 18 116 -2 49 -6 93 -11 98 -5 5 -17 -9 -27 -31z
m15 -120 c0 -61 -20 -83 -44 -49 -21 29 -20 57 1 80 29 32 43 22 43 -31z"/>
<path d="M1092 1321 c-7 -29 -12 -60 -11 -69 0 -9 7 10 15 42 8 33 13 64 11
69 -2 6 -8 -14 -15 -42z"/>
<path d="M1172 1338 c-5 -13 -20 -62 -33 -110 l-24 -88 -77 0 c-63 0 -78 -3
-78 -15 0 -10 -10 -15 -34 -15 -19 0 -37 -4 -40 -8 -12 -20 18 -27 124 -27
l115 0 5 -101 c4 -75 9 -107 21 -120 15 -17 16 -30 6 -116 l-10 -98 -69 105
-68 105 0 78 c0 102 -8 110 -122 117 l-85 6 -41 -69 c-59 -99 -133 -155 -164
-124 -6 6 -15 75 -19 154 -7 140 -21 208 -41 208 -6 0 -7 -11 -3 -27 16 -64
25 -143 25 -221 0 -84 18 -152 41 -152 7 0 9 -11 5 -32 -3 -18 -15 -107 -26
-198 -11 -91 -23 -177 -26 -192 -3 -16 -1 -28 4 -28 5 0 21 89 36 198 35 252
31 237 64 237 15 0 41 4 59 7 37 8 31 30 74 -239 18 -112 36 -203 41 -203 5 0
6 10 3 23 -3 12 -16 101 -30 197 -14 96 -28 190 -31 209 -6 31 -5 34 14 29 12
-3 23 -1 24 4 3 7 12 6 28 -2 59 -30 58 -25 53 -223 -5 -159 -4 -184 10 -196
21 -17 88 -25 107 -12 12 8 8 16 -22 43 l-37 33 9 75 c5 41 9 89 9 105 l0 30
-23 -28 -23 -29 3 69 c4 89 -15 137 -64 156 -30 12 -46 12 -106 1 -94 -18
-121 -18 -81 1 43 20 56 33 98 97 36 56 37 56 97 63 96 11 121 -17 110 -119
-4 -39 25 -103 86 -188 34 -48 75 -108 90 -135 15 -26 36 -58 47 -70 11 -13
17 -26 13 -30 -7 -8 -35 20 -162 160 -64 71 -97 89 -65 36 11 -18 47 -63 81
-101 l61 -68 -6 -58 c-5 -41 -3 -53 4 -42 6 8 11 30 11 48 0 33 16 44 26 17 4
-8 12 -15 20 -15 7 0 21 -13 30 -29 l17 -29 35 35 c30 30 67 101 57 111 -1 2
-18 -6 -36 -17 -39 -24 -69 -27 -69 -8 0 7 -14 35 -31 61 l-30 48 15 98 c9 53
16 99 16 101 0 2 32 4 72 3 l72 -1 32 -212 c17 -117 35 -215 39 -219 4 -4 5
16 2 43 -14 122 -48 371 -52 383 -2 6 2 12 10 12 8 0 15 9 15 20 0 17 -6 20
-47 19 -27 0 -69 -4 -95 -8 -71 -12 -83 6 -83 122 l0 92 308 2 308 2 -6 -162
c-14 -425 -16 -445 -61 -465 -13 -7 -24 -16 -24 -22 0 -15 54 -12 86 5 26 13
29 20 29 62 1 27 13 106 28 176 16 74 31 185 36 263 5 74 11 138 15 141 17 18
23 -7 60 -257 2 -13 -6 -54 -19 -90 -52 -150 -96 -292 -92 -297 3 -2 8 5 12
16 4 12 15 21 27 21 17 0 19 -2 7 -16 -7 -8 -35 -27 -61 -40 -27 -14 -46 -29
-43 -34 11 -17 38 -11 86 19 46 29 47 30 42 73 -4 36 0 51 21 82 31 47 33 59
5 51 -24 -8 -24 -8 16 102 12 35 21 78 19 98 -2 21 7 65 21 104 15 40 25 90
25 120 l0 52 77 -2 c48 -1 78 2 80 8 7 19 -11 22 -156 24 -113 1 -145 -1 -152
-12 -6 -10 -9 -11 -9 -1 0 6 -11 12 -25 12 -23 0 -25 3 -19 28 4 15 14 42 21
61 14 32 15 32 34 15 10 -9 19 -23 19 -31 0 -8 4 -12 9 -9 5 4 5 23 -1 46 -10
38 -12 40 -48 40 l-39 0 -6 -57 c-3 -32 -7 -65 -8 -73 -2 -13 -32 -15 -186
-18 -145 -2 -182 0 -179 10 3 7 19 59 37 115 l31 102 53 -6 c28 -3 55 -8 59
-12 3 -3 -2 -37 -13 -76 -20 -74 -25 -132 -10 -105 11 19 63 201 59 205 -2 2
-41 5 -88 6 l-84 2 -30 -106 -29 -107 -51 -1 c-28 -1 -43 -3 -33 -6 9 -2 17
-9 17 -14 0 -5 -45 -9 -100 -9 -55 0 -100 4 -100 9 0 5 6 26 14 48 31 89 54
183 45 189 -5 3 -13 -5 -17 -18z m-77 -223 c6 -2 -17 -4 -50 -4 -33 0 -54 3
-48 7 12 7 74 5 98 -3z m751 -51 c-4 -9 -11 -71 -16 -138 -12 -138 -19 -184
-31 -191 -4 -3 -8 66 -8 153 0 88 -1 163 -2 168 -3 20 2 24 32 24 25 0 30 -3
25 -16z m132 -34 c2 -24 0 -60 -3 -80 -6 -31 -8 -33 -20 -17 -7 10 -16 36 -19
59 -4 23 -12 48 -17 55 -16 18 -1 35 29 31 24 -3 27 -8 30 -48z"/>
<path d="M1850 1333 c1 -10 7 -29 15 -43 13 -22 14 -23 15 -5 0 30 -11 65 -21
65 -5 0 -9 -8 -9 -17z"/>
<path d="M740 1280 c43 -51 68 -70 92 -70 7 1 0 7 -17 15 -16 8 -46 34 -65 59
-19 25 -39 45 -43 45 -5 1 10 -22 33 -49z"/>
<path d="M2407 1280 c-3 -8 -13 -57 -22 -109 -13 -77 -14 -106 -4 -171 20
-137 -5 -170 -114 -156 -97 13 -111 12 -115 -7 -3 -15 0 -18 18 -12 22 7 22 6
15 -61 -5 -38 -7 -80 -5 -94 2 -14 4 -44 4 -67 1 -24 4 -43 7 -43 27 0 41
-139 17 -168 -15 -17 -4 -26 25 -18 21 5 25 14 34 77 8 57 7 72 -4 76 -16 6
-39 57 -58 123 -9 33 -9 61 -2 107 10 59 12 62 35 56 13 -3 40 -6 61 -7 l37
-1 28 -205 c16 -113 33 -212 38 -220 11 -18 8 13 -22 253 l-23 178 24 25 c23
25 24 30 21 157 -1 73 3 164 9 203 11 68 9 119 -4 84z"/>
<path d="M996 1207 c-25 -18 -17 -50 13 -52 16 -1 25 4 29 17 4 18 6 18 23 2
11 -9 19 -14 19 -11 0 8 -53 57 -60 57 -4 0 -14 -6 -24 -13z"/>
<path d="M2020 1195 c-15 -18 14 -39 56 -42 47 -3 43 18 -6 39 -31 13 -41 14
-50 3z"/>
<path d="M722 1110 c2 -23 10 -39 23 -47 29 -18 40 -16 23 5 -9 9 -23 31 -32
47 l-16 30 2 -35z"/>
<path d="M1484 1043 c4 -10 9 -59 11 -110 5 -88 7 -97 45 -157 22 -35 40 -74
40 -87 0 -33 30 -107 45 -113 15 -5 65 29 65 45 0 5 -6 9 -14 9 -7 0 -21 20
-30 44 -9 25 -23 50 -31 56 -7 6 -30 64 -50 128 -52 166 -65 202 -77 202 -6 0
-7 -8 -4 -17z m62 -228 c-4 -13 -26 64 -25 90 0 11 7 -2 15 -30 7 -27 12 -54
10 -60z m82 -142 c9 -21 20 -39 25 -41 12 -6 8 -22 -5 -22 -7 0 -22 19 -32 43
-11 23 -22 45 -24 50 -2 4 1 7 7 7 6 0 19 -17 29 -37z"/>
<path d="M1416 1033 c-12 -43 -17 -87 -8 -73 11 17 25 90 18 90 -3 0 -7 -8
-10 -17z"/>
<path d="M2727 993 c-2 -5 -7 -19 -11 -33 -5 -22 -69 -100 -81 -100 -8 0 -4
53 5 75 5 11 9 15 9 9 1 -7 9 -15 18 -18 10 -4 14 -4 11 0 -4 4 2 18 13 33 28
36 7 39 -37 6 -48 -37 -60 -71 -39 -111 19 -35 12 -86 -11 -77 -7 2 -16 13
-19 23 -8 26 -34 34 -28 9 7 -24 -5 -24 -30 -2 -18 17 -20 17 -38 -6 -20 -24
-24 -57 -10 -79 6 -10 12 -7 25 13 9 14 14 30 11 34 -3 5 4 7 15 4 26 -7 25
-17 -5 -41 -30 -24 -31 -30 -7 -48 25 -20 42 -17 42 7 0 11 -4 17 -10 14 -5
-3 -10 -1 -10 4 0 6 5 11 10 11 6 0 10 7 10 16 0 9 6 14 13 12 6 -3 12 -11 12
-19 0 -21 27 -39 51 -33 14 4 23 0 27 -10 7 -17 -20 -49 -33 -41 -5 3 -11 -9
-13 -27 -3 -23 -4 -17 -5 20 -2 38 -6 52 -16 52 -22 0 -28 -17 -10 -24 12 -5
15 -20 12 -76 -2 -38 -7 -70 -12 -70 -5 0 -6 32 -4 71 3 41 2 65 -3 58 -5 -8
-9 -40 -9 -71 0 -32 -4 -58 -10 -58 -5 0 -10 -4 -10 -10 0 -5 20 -10 45 -10
25 0 45 5 45 10 0 6 -7 10 -15 10 -16 0 -20 28 -7 45 13 18 42 14 42 -6 0 -17
36 -46 46 -37 2 2 1 21 -3 41 -4 29 -8 35 -19 26 -10 -8 -18 -7 -33 3 -19 13
-18 14 5 41 28 33 34 33 64 2 18 -20 21 -28 12 -37 -16 -16 -16 -81 1 -76 21
7 33 44 29 88 -3 32 -9 43 -28 50 -27 11 -32 30 -8 30 14 0 14 3 4 15 -16 20
-37 19 -48 -1 -6 -11 -11 -13 -16 -5 -4 6 -16 11 -27 11 -21 0 -25 23 -9 65 9
24 11 25 26 11 18 -18 33 -20 54 -6 13 9 12 12 -4 25 -11 8 -28 15 -38 15 -10
0 -18 7 -18 15 0 18 77 105 93 105 6 0 1 -9 -11 -20 -29 -27 -28 -29 11 -21
27 6 32 11 35 40 2 18 -2 39 -9 47 -12 15 -35 19 -42 7z"/>
<path d="M1394 904 c3 -9 6 -30 6 -47 0 -20 3 -28 10 -21 12 12 1 84 -12 84
-6 0 -7 -7 -4 -16z"/>
<path d="M2714 863 c3 -6 0 -14 -7 -16 -8 -3 -7 -10 5 -23 20 -21 33 -13 43
26 5 22 3 25 -20 25 -15 0 -23 -5 -21 -12z"/>
<path d="M1426 832 c-4 -6 0 -51 9 -99 17 -99 19 -156 6 -181 -4 -9 -5 -51 -1
-92 6 -69 7 -71 9 -22 1 35 5 51 12 47 6 -4 9 -26 7 -49 -3 -40 -2 -41 27 -41
20 0 30 5 30 15 0 8 -9 15 -19 15 -16 0 -22 12 -32 60 -16 76 -16 81 -3 68 6
-6 14 -35 19 -64 4 -31 5 31 2 141 -2 107 -6 197 -8 199 -2 2 -9 -9 -15 -25
l-11 -29 -12 34 c-8 21 -15 30 -20 23z"/>
<path d="M2006 770 c-9 -22 -16 -52 -16 -66 0 -14 -7 -39 -16 -56 -10 -20 -17
-62 -18 -120 l-3 -89 36 -24 c44 -31 62 -18 32 23 -11 17 -22 38 -23 48 -5 41
16 241 28 278 17 46 17 46 5 46 -5 0 -16 -18 -25 -40z"/>
<path d="M2050 786 c0 -12 69 -146 91 -177 17 -25 18 -31 4 -115 -16 -95 -18
-131 -9 -122 3 3 13 52 24 109 20 115 23 102 -44 219 -37 64 -66 102 -66 86z"/>
<path d="M2550 431 c0 -45 19 -66 54 -57 24 6 36 30 36 74 0 20 -5 22 -45 22
l-45 0 0 -39z m58 -9 c2 -14 -2 -22 -12 -22 -19 0 -29 17 -22 36 8 22 30 12
34 -14z"/>
<path d="M308 399 c-10 -5 -18 -14 -18 -19 0 -19 45 -50 69 -49 25 1 25 2 -3
8 -41 9 -57 38 -32 57 22 16 10 19 -16 3z"/>
<path d="M1778 293 c23 -2 59 -2 80 0 20 2 1 4 -43 4 -44 0 -61 -2 -37 -4z"/>
</g>
</svg>
