<?xml version="1.0" standalone="no"?>
<!DOCTYPE svg PUBLIC "-//W3C//DTD SVG 20010904//EN"
 "http://www.w3.org/TR/2001/REC-SVG-20010904/DTD/svg10.dtd">
<svg version="1.0" xmlns="http://www.w3.org/2000/svg"
 width="300.000000pt" height="200.000000pt" viewBox="0 0 300.000000 200.000000"
 preserveAspectRatio="xMidYMid meet">
<metadata>
Created by potrace 1.10, written by Peter Selinger 2001-2011
</metadata>
<g transform="translate(0.000000,200.000000) scale(0.100000,-0.100000)"
fill="#000000" stroke="none">
<path d="M828 1973 c-2 -20 -10 -29 -32 -34 -30 -8 -96 -50 -96 -60 0 -13 140
-21 222 -14 l83 7 -35 30 c-19 15 -52 33 -72 39 -31 8 -38 14 -38 34 0 34 -28
32 -32 -2z"/>
<path d="M1460 1975 c0 -20 -7 -26 -40 -35 -23 -6 -55 -24 -73 -39 l-31 -29
77 -7 c42 -4 112 -4 154 0 l77 7 -31 29 c-18 15 -50 33 -71 39 -35 9 -39 13
-34 35 3 18 0 25 -12 25 -10 0 -16 -9 -16 -25z"/>
<path d="M2080 1975 c0 -20 -7 -26 -39 -36 -46 -14 -99 -54 -88 -66 11 -11
273 -11 284 0 11 12 -42 52 -88 66 -32 10 -39 16 -39 36 0 16 -6 25 -15 25 -9
0 -15 -9 -15 -25z"/>
<path d="M779 1712 c-23 -27 -39 -71 -29 -77 5 -3 7 -12 4 -20 -6 -15 17 -45
34 -45 14 0 102 69 102 80 0 6 -7 10 -15 10 -8 0 -15 9 -15 20 0 13 -7 20 -20
20 -11 0 -20 4 -20 9 0 17 -27 19 -41 3z m49 -70 c2 -14 -2 -22 -12 -22 -19 0
-29 17 -22 36 8 22 30 12 34 -14z"/>
<path d="M2280 1676 c-6 -8 -18 -12 -26 -9 -18 7 -29 -23 -15 -41 10 -12 16
-12 42 2 29 16 31 16 49 -6 21 -25 17 -47 -11 -74 -19 -19 -44 -25 -34 -8 3 6
2 10 -4 10 -5 0 -9 9 -8 20 1 14 8 20 25 20 13 0 21 4 18 9 -6 9 -63 -1 -59
-10 0 -2 4 -21 8 -42 4 -20 14 -41 23 -46 12 -7 7 -14 -25 -34 -30 -19 -43
-35 -48 -59 -12 -51 -48 -119 -61 -114 -7 3 -20 -4 -30 -15 -9 -10 -23 -19
-31 -19 -18 0 -17 -7 8 -41 27 -38 70 -39 104 -3 32 34 32 29 1 -128 -45 -222
-56 -443 -38 -712 l7 -100 35 0 35 -1 7 140 c4 77 15 210 23 295 17 166 18
207 9 197 -13 -13 -43 -280 -44 -392 -1 -144 -10 -200 -30 -200 -11 0 -15 12
-16 45 -1 62 -14 220 -21 247 -4 16 1 22 19 26 l23 4 -23 2 c-20 1 -22 5 -17
39 3 20 10 89 16 152 6 63 17 122 23 130 18 21 27 50 17 50 -5 0 -11 -10 -14
-22 -9 -34 -17 -16 -11 24 6 35 6 35 41 25 19 -6 39 -20 43 -32 5 -11 9 -15 9
-8 1 6 4 18 7 26 5 14 -26 31 -53 28 -6 -1 -10 11 -9 29 1 16 -2 30 -7 30 -6
0 -5 5 1 13 5 6 13 23 17 36 5 18 4 22 -6 16 -11 -6 -12 -5 -1 6 14 15 16 43
2 34 -5 -3 -7 0 -4 9 3 8 -3 19 -14 25 -15 8 -24 6 -40 -9 -26 -24 -48 -26
-56 -3 -8 19 15 38 25 21 4 -6 10 -2 14 11 3 11 11 21 16 21 5 0 14 11 19 25
5 14 14 25 20 25 5 0 10 16 10 35 0 22 8 41 22 54 20 19 22 19 34 3 12 -16 13
-16 19 1 4 9 4 24 1 33 -3 9 5 26 19 42 14 15 25 39 25 54 0 14 4 28 9 30 5 2
12 19 16 39 6 34 5 37 -26 48 -43 15 -64 14 -79 -3z"/>
<path d="M1244 1645 c-13 -32 1 -36 139 -38 l137 -2 0 28 0 27 -135 0 c-110 0
-137 -3 -141 -15z"/>
<path d="M2456 1614 c-20 -20 -20 -27 3 -55 16 -21 22 -22 45 -11 17 8 26 19
26 35 0 44 -43 62 -74 31z m62 -23 c6 -40 -39 -56 -58 -20 -9 15 -8 24 1 35
18 22 53 13 57 -15z"/>
<path d="M2023 1605 c-11 -8 -24 -27 -28 -42 -12 -50 -20 -53 -149 -55 l-121
-2 110 -4 c141 -4 151 -1 165 45 7 21 17 43 22 48 5 6 44 13 86 16 l77 6 -70
1 c-48 1 -77 -3 -92 -13z"/>
<path d="M860 1603 c-25 -9 -40 -35 -40 -68 0 -18 2 -34 5 -37 12 -11 53 5 58
23 3 11 11 18 19 16 7 -2 10 -2 6 0 -5 3 -8 9 -8 14 0 15 36 10 50 -6 9 -11 9
-15 1 -15 -7 0 -10 -4 -7 -8 3 -5 -3 -18 -14 -30 -12 -12 -17 -28 -13 -38 5
-13 2 -15 -18 -9 -23 7 -23 6 -7 -10 15 -16 18 -17 33 -2 21 22 45 80 45 111
0 44 -61 77 -110 59z"/>
<path d="M1082 1598 c-7 -7 -12 -22 -12 -34 0 -27 -16 -41 -55 -47 l-30 -4 30
-1 c41 -2 56 9 64 49 7 34 7 34 71 40 l65 6 -60 1 c-36 1 -66 -3 -73 -10z"/>
<path d="M1600 1601 c57 -11 60 -16 62 -99 l2 -77 3 74 c5 88 -9 112 -66 110
l-36 -1 35 -7z"/>
<path d="M1421 1559 c-16 -38 -43 -67 -91 -99 -25 -17 -41 -30 -37 -30 35 0
161 129 144 147 -4 3 -11 -5 -16 -18z"/>
<path d="M617 1521 c-17 -22 -15 -53 3 -58 9 -3 11 -1 5 4 -23 18 -6 59 25 59
20 0 35 -15 35 -36 0 -20 -17 -38 -31 -33 -7 2 -15 0 -19 -6 -8 -14 28 -9 47
7 17 14 17 47 0 64 -17 17 -50 17 -65 -1z"/>
<path d="M1448 1425 c3 -83 6 -105 18 -105 11 0 14 20 14 105 0 93 -2 105 -17
105 -16 0 -18 -10 -15 -105z"/>
<path d="M634 1499 c-10 -17 13 -36 27 -22 12 12 4 33 -11 33 -5 0 -12 -5 -16
-11z"/>
<path d="M1160 1493 c-1 -10 -7 -29 -14 -43 -10 -16 -11 -30 -5 -42 10 -18
-36 -138 -53 -138 -11 0 -36 28 -79 88 -24 33 -36 42 -57 41 -15 -1 -36 2 -47
6 -15 5 -16 4 -6 -3 10 -7 4 -11 -26 -16 -37 -7 -39 -9 -35 -37 4 -28 6 -29
21 -14 19 16 46 21 37 6 -4 -5 -1 -11 6 -13 16 -6 2 -58 -16 -58 -19 0 -39
-27 -33 -43 4 -10 19 -11 71 -3 45 7 65 14 62 22 -3 7 -7 41 -10 76 l-6 63 25
-50 c14 -27 25 -62 25 -77 0 -51 72 -76 109 -39 22 22 85 207 77 227 -3 8 -13
14 -22 14 -12 0 -15 6 -10 25 4 14 2 25 -4 25 -5 0 -10 -8 -10 -17z m-98 -237
c11 -11 16 -11 35 1 21 14 23 14 23 -1 0 -27 -49 -32 -73 -7 -12 11 -16 21
-10 21 7 0 18 -6 25 -14z"/>
<path d="M2356 1481 c-10 -11 -16 -31 -14 -48 l3 -28 23 27 24 26 35 -24 c20
-13 43 -33 53 -44 9 -11 21 -16 25 -12 4 4 6 0 3 -8 -5 -16 50 -87 64 -83 4 2
8 -6 8 -16 0 -11 3 -28 6 -38 5 -16 4 -17 -8 -1 -7 9 -19 25 -27 37 -8 11 -18
18 -22 15 -4 -2 -12 3 -17 12 -8 14 -10 14 -25 -1 -16 -15 -17 -15 -17 3 0 10
-9 27 -20 37 -11 10 -20 13 -20 8 0 -6 7 -14 16 -17 13 -5 15 -16 11 -54 -10
-80 -11 -86 -29 -104 -22 -22 -23 -57 -2 -86 9 -13 11 -22 4 -22 -6 0 -9 -4
-5 -9 3 -6 -11 -11 -32 -13 -20 -2 -38 -8 -40 -14 -3 -8 11 -10 43 -6 42 4 47
3 41 -12 -4 -10 -7 -29 -7 -42 0 -31 -23 -31 -40 1 -7 14 -17 25 -22 25 -12 0
6 -31 31 -54 12 -11 19 -26 16 -35 -2 -9 -9 -119 -15 -246 -11 -252 -25 -348
-52 -353 -15 -3 -17 13 -17 152 -1 86 -4 162 -7 171 -4 11 1 15 17 16 20 0 21
2 6 8 -15 6 -18 22 -22 120 -2 62 -6 116 -9 119 -3 3 -6 -51 -6 -119 0 -68 -1
-208 -3 -311 l-2 -188 36 0 c35 0 36 1 48 53 7 28 17 129 21 222 9 194 36 453
52 505 8 25 8 35 -1 38 -6 2 -9 8 -5 13 3 5 0 9 -6 9 -6 0 -8 4 -5 10 4 6 -1
7 -11 3 -14 -5 -15 -3 -5 15 7 12 20 22 30 22 16 0 20 11 26 65 l7 65 24 -30
c14 -16 23 -34 19 -40 -3 -5 -1 -10 6 -10 7 0 23 -10 36 -22 l23 -21 14 33
c18 43 10 63 -51 142 -64 84 -110 128 -134 128 -11 0 -22 7 -25 15 -8 20 -27
19 -48 -4z"/>
<path d="M858 1485 c-4 -4 -4 -13 -2 -20 3 -7 1 -23 -5 -34 -7 -12 -7 -22 -2
-26 6 -3 13 10 17 29 6 37 3 62 -8 51z"/>
<path d="M1398 1405 c-3 -76 -1 -85 15 -85 15 0 17 11 17 85 0 67 -3 85 -14
85 -11 0 -15 -20 -18 -85z"/>
<path d="M2550 1475 c0 -8 5 -15 11 -15 5 0 8 4 4 9 -3 6 12 12 32 14 l38 4
-42 1 c-32 2 -43 -2 -43 -13z"/>
<path d="M2678 1483 c18 -2 30 -9 27 -14 -4 -5 1 -9 9 -9 9 0 16 7 16 15 0 11
-11 15 -42 13 -38 -1 -39 -2 -10 -5z"/>
<path d="M1757 1453 c-4 -3 -7 -23 -7 -43 l0 -38 48 5 c69 7 72 9 72 48 l0 35
-53 0 c-30 0 -57 -3 -60 -7z m103 -32 c0 -28 -2 -29 -50 -33 l-50 -3 0 33 c0
32 0 32 50 32 49 0 50 -1 50 -29z"/>
<path d="M1350 1385 c0 -45 4 -65 13 -65 9 0 11 18 9 65 -5 84 -22 84 -22 0z"/>
<path d="M2076 1435 c-3 -8 -1 -25 4 -37 5 -13 9 -18 9 -11 1 6 11 14 24 16
18 4 17 4 -6 6 -24 1 -27 4 -22 21 7 23 0 27 -9 5z"/>
<path d="M2670 1429 c0 -7 -14 -10 -35 -7 -19 2 -35 0 -35 -4 0 -4 18 -8 40
-8 29 0 40 4 40 15 0 8 -2 15 -5 15 -3 0 -5 -5 -5 -11z"/>
<path d="M726 1351 c-80 -110 -83 -171 -8 -171 34 0 121 45 109 56 -2 3 -27
-4 -55 -15 -46 -18 -53 -19 -67 -5 -21 21 -20 24 28 96 28 42 50 64 65 66 28
4 24 26 -6 30 -16 3 -32 -11 -66 -57z"/>
<path d="M1300 1358 c0 -27 4 -38 15 -38 11 0 15 11 15 38 0 28 -4 39 -15 39
-11 0 -15 -11 -15 -39z"/>
<path d="M1234 1260 c0 -63 1 -89 3 -57 2 31 2 83 0 115 -2 31 -3 5 -3 -58z"/>
<path d="M1599 1363 c-20 -5 -32 -42 -20 -57 5 -6 12 -26 16 -43 4 -21 13 -33
23 -33 13 0 14 -2 4 -8 -15 -10 -7 -38 14 -46 22 -8 17 -23 -16 -43 -40 -23
-57 -73 -36 -105 9 -13 25 -51 36 -84 11 -32 22 -61 23 -64 3 -7 20 -1 32 11
5 5 1 9 -12 9 -16 0 -23 10 -33 48 -7 26 -20 60 -27 76 -13 26 -13 30 7 51 16
17 18 24 8 29 -7 3 2 4 20 1 41 -6 76 8 108 42 21 23 25 24 22 9 -1 -10 3 -21
10 -23 8 -3 10 1 5 14 -3 10 10 1 29 -20 l36 -38 -3 33 c-2 26 -9 35 -35 46
-39 16 -82 12 -88 -7 -3 -9 0 -11 9 -6 8 4 5 -2 -6 -13 -27 -28 -70 -38 -78
-18 -4 10 1 20 12 26 27 14 35 39 10 33 -23 -6 -24 0 -3 35 15 26 15 26 -1 5
-21 -28 -39 -30 -30 -4 3 10 -1 24 -10 31 -13 11 -13 15 -3 21 10 7 9 9 -4 9
-28 0 -21 16 12 30 29 12 61 8 59 -7 -4 -21 2 -43 11 -43 16 0 43 61 32 72 -5
5 -28 12 -51 15 -22 3 -41 10 -41 14 0 9 -13 10 -41 2z"/>
<path d="M2110 1341 c-24 -4 -31 -9 -22 -15 16 -10 62 1 62 14 0 6 -1 9 -2 9
-2 -1 -19 -4 -38 -8z"/>
<path d="M1522 1225 c1 -69 1 -69 8 -20 4 28 3 59 -1 70 -5 12 -7 -6 -7 -50z"/>
<path d="M786 1264 c-15 -9 -37 -14 -47 -11 -10 3 -19 1 -19 -4 0 -16 55 -9
80 11 30 23 25 25 -14 4z"/>
<path d="M1709 1252 c-17 -20 -17 -49 1 -66 9 -8 11 -4 6 20 -5 24 -3 33 8 37
9 4 16 11 16 17 0 15 -14 12 -31 -8z"/>
<path d="M1338 1173 c29 -2 74 -2 100 0 26 2 2 3 -53 3 -55 0 -76 -1 -47 -3z"/>
<path d="M2500 1176 c0 -12 51 -58 57 -53 7 8 -35 57 -49 57 -4 0 -8 -2 -8 -4z"/>
<path d="M995 1131 c-3 -7 -21 -11 -38 -11 -18 0 -61 -2 -96 -4 -82 -4 -95
-20 -128 -159 -28 -118 -23 -147 25 -147 19 0 29 5 29 15 0 8 -6 15 -13 15
-24 0 -35 36 -24 77 l10 38 -6 -45 c-3 -24 -2 -41 2 -37 4 3 10 42 14 86 5 54
13 87 26 106 18 24 27 27 99 31 57 3 76 1 65 -6 -11 -8 -7 -10 19 -8 47 4 66
-25 33 -52 -14 -11 -18 -21 -12 -25 6 -4 17 -1 25 5 24 20 49 -52 47 -137 -1
-40 3 -94 7 -120 7 -34 6 -50 -2 -55 -9 -6 -8 -10 2 -17 10 -7 12 -21 7 -57
-8 -66 -13 -133 -15 -231 -1 -63 -4 -83 -15 -83 -20 0 -25 40 -32 233 -5 143
-11 192 -36 291 -17 71 -27 130 -23 145 6 24 5 25 -8 7 -12 -17 -12 -26 0 -65
7 -25 14 -62 14 -81 1 -19 6 -53 11 -75 6 -22 11 -87 13 -145 1 -58 8 -154 15
-215 15 -122 16 -152 10 -208 l-5 -38 93 -2 c75 -2 92 1 90 12 -2 8 -24 20
-50 28 -51 15 -73 41 -64 76 3 12 10 110 16 219 9 147 9 215 0 272 -9 58 -9
84 1 109 11 31 8 42 -36 143 -53 121 -60 131 -70 115z m75 -871 c0 -11 -7 -20
-15 -20 -8 0 -15 9 -15 20 0 11 7 20 15 20 8 0 15 -9 15 -20z"/>
<path d="M1850 1134 c0 -15 22 -44 35 -44 14 0 25 -16 64 -95 27 -54 26 -65
-11 -121 -32 -48 -33 -50 -25 -124 14 -129 -14 -165 -143 -191 -89 -17 -101
-32 -115 -139 -3 -30 -12 -73 -18 -95 l-10 -40 -8 40 c-4 22 -8 68 -8 102 -1
41 -6 67 -16 77 -8 8 -15 24 -15 36 0 19 -4 21 -32 15 -18 -4 -38 -12 -45 -17
-8 -7 -10 -3 -7 14 6 25 9 31 -71 -122 -45 -88 -52 -88 -34 2 18 90 48 172 74
202 30 35 26 43 -13 27 -37 -16 -43 -29 -86 -201 -40 -157 -43 -180 -22 -180
8 0 21 -2 29 -5 10 -4 28 26 65 108 29 63 52 120 52 127 0 7 7 10 16 6 9 -3
29 -6 45 -6 l29 0 0 -89 c0 -48 3 -109 6 -135 6 -44 8 -46 39 -46 37 0 36 -5
57 167 l12 103 41 0 42 0 7 -92 c3 -50 6 -113 6 -140 l0 -48 -54 0 c-47 0 -55
-3 -61 -22 -7 -22 -8 -22 -12 -2 -3 15 -12 20 -38 21 -20 1 -36 -5 -39 -13 -5
-14 -54 -39 -69 -35 -15 3 -47 -20 -47 -34 0 -13 16 -15 98 -11 55 2 96 8 95
13 -1 6 9 8 22 5 29 -5 44 20 25 43 -11 13 -6 15 34 15 41 0 46 -2 38 -17 -13
-25 -4 -43 19 -43 25 0 35 25 19 45 -11 13 -5 15 40 15 45 0 51 -2 40 -15 -16
-20 -6 -45 19 -45 26 0 31 19 14 53 -12 24 -19 27 -66 27 l-52 0 2 77 c1 43 2
106 3 141 l0 62 94 0 c63 0 97 4 104 13 15 19 136 533 129 551 -5 13 -26 16
-123 16 -112 0 -117 1 -136 25 -18 23 -38 33 -38 19z m244 -73 c7 -11 -103
-481 -117 -498 -6 -8 -35 -13 -78 -13 -37 0 -71 -4 -74 -10 -7 -12 -35 -13
-35 -2 0 5 19 14 43 21 82 25 109 69 106 178 -2 66 2 82 27 128 29 55 29 68 3
165 -3 12 8 15 59 15 89 0 77 14 -15 18 l-78 3 77 2 c42 1 79 -2 82 -7z m-3
-194 c-56 -236 -80 -329 -87 -336 -8 -7 -9 -11 61 282 32 131 60 236 62 233 3
-2 -14 -83 -36 -179z m-458 -692 c-7 -19 -33 -20 -33 -1 0 15 20 26 32 19 4
-2 5 -10 1 -18z"/>
<path d="M1318 1113 c34 -2 90 -2 125 0 34 2 6 3 -63 3 -69 0 -97 -1 -62 -3z"/>
<path d="M1780 1068 c0 -7 15 -26 32 -43 l31 -30 -28 43 c-29 45 -35 50 -35
30z"/>
<path d="M480 1015 c0 -17 -7 -41 -16 -54 -11 -14 -14 -33 -10 -52 3 -17 0
-38 -7 -49 -9 -16 -9 -24 1 -40 16 -26 16 -53 0 -48 -7 3 -14 18 -16 35 -2 17
-12 39 -23 49 -10 9 -19 28 -19 41 0 23 -26 73 -39 73 -11 0 -6 -104 6 -126 7
-12 8 -26 3 -34 -6 -10 -2 -22 11 -36 13 -14 19 -29 15 -41 -4 -13 1 -26 14
-38 28 -25 25 -35 -10 -35 -34 0 -38 -15 -15 -60 19 -38 66 -74 75 -59 10 15
-32 58 -43 44 -5 -6 -7 0 -4 13 4 18 2 22 -9 18 -17 -7 -19 10 -2 20 9 6 198
13 198 8 0 -1 -7 -18 -15 -37 -18 -43 -19 -57 -5 -57 11 0 49 75 50 98 0 7
-13 12 -30 12 -36 0 -39 14 -5 36 20 13 23 20 15 35 -8 14 -5 23 11 38 15 13
19 26 14 41 -4 11 -2 27 4 33 5 7 9 39 8 70 l-2 58 -22 -26 c-13 -14 -23 -36
-23 -49 0 -13 -9 -31 -21 -42 -13 -11 -19 -27 -16 -41 2 -12 0 -28 -5 -35 -15
-24 -29 14 -22 63 3 29 1 49 -5 54 -6 3 -11 30 -11 59 0 30 -6 60 -15 72 -14
18 -14 18 -15 -11z m10 -301 c0 -46 -3 -54 -19 -54 -10 0 -21 8 -24 18 -3 9
-10 31 -15 48 -9 28 -8 31 9 27 11 -3 21 1 25 11 12 30 24 5 24 -50z m57 41
c12 4 14 0 8 -22 -8 -35 -32 -73 -45 -73 -6 0 -10 27 -10 61 0 56 1 59 16 44
9 -9 23 -14 31 -10z"/>
<path d="M1552 998 c-9 -24 -9 -34 0 -39 20 -13 40 2 34 25 -3 11 -6 27 -6 34
0 23 -16 12 -28 -20z"/>
<path d="M816 978 c-2 -7 -11 -74 -20 -148 -9 -74 -25 -161 -36 -192 -28 -82
-61 -293 -50 -321 5 -12 9 -16 9 -8 1 8 8 11 20 8 10 -2 23 -2 28 2 9 5 95
225 122 311 6 19 17 71 24 115 12 70 16 80 35 83 18 3 20 7 12 23 -15 28 -25
24 -44 -18 -12 -29 -35 -131 -36 -162 0 -2 -7 -1 -15 3 -8 3 -15 1 -15 -4 0
-6 5 -10 10 -10 16 0 12 -26 -14 -82 -34 -76 -53 -126 -71 -184 -14 -43 -20
-51 -37 -46 -14 3 -18 11 -14 26 3 11 14 66 25 122 11 55 27 119 35 142 8 23
18 88 22 144 6 87 10 105 29 122 12 12 28 32 35 46 9 19 5 17 -19 -10 l-32
-35 3 43 c3 41 1 54 -6 30z"/>
<path d="M1468 896 c-36 -6 -70 -14 -74 -18 -4 -4 13 -51 37 -104 l43 -96 56
7 c84 10 87 11 85 48 -2 30 -59 163 -73 170 -4 2 -37 -2 -74 -7z m-20 -48 c17
-17 15 -28 -7 -28 -22 0 -35 15 -26 30 8 13 18 13 33 -2z m91 -6 c15 -28 17
-74 4 -79 -7 -3 -10 3 -6 15 3 14 -5 26 -26 41 -17 13 -29 27 -26 32 10 15 44
10 54 -9z m-18 -48 c10 -13 10 -17 -1 -24 -19 -12 -40 -1 -40 21 0 23 23 25
41 3z m5 -91 c-8 -8 -36 17 -36 32 0 8 8 15 18 17 12 2 18 -4 20 -20 2 -13 1
-26 -2 -29z m58 41 c23 -22 20 -34 -8 -34 -27 0 -44 29 -24 42 17 10 14 11 32
-8z"/>
<path d="M1655 862 c-6 -4 -12 -22 -13 -40 -2 -31 -1 -32 19 -21 17 9 19 13 8
20 -8 5 -9 9 -3 9 7 0 14 7 18 15 5 13 2 14 -17 4 -20 -11 -21 -11 -8 4 14 18
13 21 -4 9z"/>
<path d="M2585 763 c15 -37 17 -53 7 -53 -6 0 -14 9 -17 20 -8 27 -22 17 -30
-20 -6 -25 -2 -34 19 -51 14 -11 26 -25 26 -30 0 -16 -21 -9 -40 13 l-18 23 5
-28 c6 -30 46 -67 73 -67 10 0 29 9 44 21 21 16 26 29 25 57 -3 66 -10 84 -25
71 -19 -16 -28 -5 -15 19 13 24 -3 42 -37 42 -19 0 -23 -4 -17 -17z"/>
<path d="M1726 753 c-3 -4 -14 -8 -24 -9 -61 -9 -83 -16 -79 -27 2 -7 11 -12
20 -11 10 0 32 1 51 2 26 2 35 7 39 24 7 24 4 32 -7 21z"/>
<path d="M1858 743 c-33 -5 -32 -3 -13 -50 16 -39 33 -55 47 -47 10 7 11 105
1 103 -5 -1 -20 -4 -35 -6z m32 -49 c0 -22 -2 -25 -15 -14 -8 7 -15 19 -15 26
0 8 7 14 15 14 10 0 15 -10 15 -26z"/>
<path d="M1786 723 c-3 -4 -16 -8 -29 -10 -42 -7 -38 -21 5 -16 42 5 44 4 60
-31 27 -55 39 -43 15 14 -20 47 -34 59 -51 43z"/>
<path d="M2445 614 c-16 -16 -16 -18 9 -31 34 -18 34 -37 1 -29 -29 7 -28 9
-14 -32 9 -25 17 -31 45 -34 19 -2 34 -7 33 -13 -1 -11 -2 -11 -39 0 -25 8
-25 8 -6 -14 27 -30 89 -29 110 1 18 25 21 66 6 88 -8 12 -10 9 -10 -12 0 -16
-5 -28 -11 -28 -7 0 -9 10 -5 26 5 18 2 32 -10 45 -21 23 -34 24 -34 4 0 -27
-19 -16 -22 12 -4 33 -29 41 -53 17z"/>
<path d="M2729 603 c-1 -5 -2 -14 -3 -22 -2 -20 -26 -26 -26 -6 0 13 -4 14
-20 5 -14 -7 -20 -21 -20 -45 0 -18 -5 -37 -11 -41 -8 -5 -10 3 -7 26 5 30 4
31 -9 15 -28 -39 -6 -100 38 -109 32 -6 73 6 84 24 6 9 -1 10 -24 5 -19 -4
-31 -3 -31 4 0 6 12 13 28 17 47 10 49 12 61 44 11 34 14 33 -38 12 -23 -9 -7
22 17 33 26 11 29 30 6 39 -22 8 -44 8 -45 -1z"/>
<path d="M537 561 c-3 -13 -10 -20 -16 -17 -5 4 -13 2 -16 -4 -4 -6 -15 -8
-26 -5 -11 4 -19 2 -19 -4 0 -13 37 -15 44 -2 3 5 15 7 25 4 23 -6 31 6 21 31
-6 19 -7 18 -13 -3z"/>
<path d="M570 519 c-19 -3 -27 -7 -17 -8 10 0 25 -8 34 -16 16 -17 33 -12 33
10 0 19 -10 22 -50 14z"/>
<path d="M370 506 c0 -19 17 -29 25 -15 4 6 17 14 29 19 17 7 15 9 -16 9 -27
1 -38 -3 -38 -13z"/>
<path d="M462 498 c-6 -6 -21 -12 -34 -13 -24 -2 -27 -10 -62 -195 -8 -41 -18
-90 -21 -107 -14 -63 13 -34 34 37 l22 70 94 0 94 0 16 -57 c23 -82 23 -83 36
-83 7 0 9 9 6 22 -3 13 -11 53 -18 91 -10 54 -16 67 -31 67 -10 0 -18 -4 -18
-10 0 -6 -35 -10 -85 -10 -50 0 -85 4 -85 10 0 6 33 10 80 10 52 0 80 4 80 11
0 6 9 9 20 6 22 -6 24 2 11 53 -5 19 -12 47 -15 63 -5 20 -12 27 -31 27 -13 0
-27 5 -30 10 -8 14 -48 13 -63 -2z m83 -67 c10 -31 20 -62 22 -68 4 -10 -14
-13 -69 -13 -41 0 -79 -5 -85 -11 -6 -6 -17 -9 -25 -6 -9 4 -6 8 9 12 17 6 28
24 44 75 22 66 23 68 54 67 30 -1 34 -5 50 -56z"/>
<path d="M2490 396 c0 -8 5 -16 11 -18 8 -3 38 -165 39 -213 0 -6 30 -11 74
-10 l75 0 12 103 c7 58 18 110 26 117 29 30 14 35 -112 35 -101 0 -125 -3
-125 -14z m205 -6 c4 -7 -25 -9 -87 -8 -74 1 -83 2 -43 7 95 11 123 12 130 1z
m-11 -39 c3 -5 -8 -14 -24 -21 -17 -7 -33 -17 -36 -22 -4 -5 8 -3 24 6 17 9
33 16 36 16 2 0 2 -19 -1 -42 -4 -32 -15 -51 -41 -75 -39 -37 -42 -39 -42 -19
0 8 14 26 31 39 38 30 34 58 -8 56 l-28 -2 28 -4 c35 -6 34 -18 -3 -50 -16
-13 -30 -31 -30 -39 0 -8 -5 -14 -11 -14 -11 0 -7 43 8 88 4 15 3 15 -6 2 -6
-8 -11 -23 -11 -33 0 -10 -4 -16 -9 -12 -5 3 -7 20 -4 39 3 22 0 42 -11 59
-13 20 -14 26 -4 30 22 9 137 7 142 -2z"/>
<path d="M680 260 c-9 -22 -7 -33 10 -62 17 -30 27 -37 61 -40 22 -2 42 -2 44
1 8 7 -16 41 -29 41 -16 0 -29 53 -15 58 23 9 6 28 -26 28 -28 0 -36 -5 -45
-26z"/>
<path d="M1308 259 c-2 -7 -29 -14 -61 -17 -52 -4 -77 -15 -64 -28 9 -10 177
-52 181 -46 2 4 6 25 7 46 3 29 0 40 -11 41 -8 2 -22 6 -31 10 -10 3 -19 1
-21 -6z"/>
<path d="M830 242 c0 -21 29 -52 48 -52 18 0 15 14 -9 44 -24 30 -39 34 -39 8z"/>
<path d="M2165 228 c-7 -11 -33 -25 -56 -32 -24 -7 -45 -19 -47 -27 -2 -11 17
-14 93 -14 103 0 105 1 89 61 -8 30 -60 38 -79 12z"/>
<path d="M2301 213 c-16 -57 -15 -58 49 -58 33 -1 60 4 60 9 0 6 -12 27 -26
48 -36 52 -69 52 -83 1z m59 18 c0 -5 3 -16 6 -25 4 -10 1 -16 -9 -16 -14 0
-27 20 -27 41 0 5 7 9 15 9 8 0 15 -4 15 -9z"/>
<path d="M900 211 c0 -11 4 -22 9 -25 11 -7 23 22 15 35 -9 16 -24 10 -24 -10z"/>
<path d="M200 160 c-27 -6 -15 -8 48 -9 49 0 82 3 82 9 0 11 -77 11 -130 0z"/>
<path d="M386 155 c-5 -13 12 -15 110 -15 103 0 114 2 100 15 -21 22 -201 22
-210 0z"/>
<path d="M2432 155 c-11 -13 -5 -15 44 -15 49 0 55 2 44 15 -16 19 -71 19 -88
0z"/>
<path d="M2705 160 c-4 -6 20 -10 67 -9 66 1 69 2 33 10 -55 11 -93 11 -100
-1z"/>
<path d="M820 140 c0 -6 39 -10 98 -10 66 0 92 3 82 10 -20 13 -180 13 -180 0z"/>
<path d="M1965 140 c-15 -6 -6 -9 33 -9 33 -1 51 3 47 9 -7 12 -52 12 -80 0z"/>
<path d="M1263 133 c37 -2 96 -2 130 0 34 2 4 3 -68 3 -71 0 -99 -1 -62 -3z"/>
</g>
</svg>
